<svg width="1080" height="1080" viewBox="0 0 1080 1080" fill="none" xmlns="http://www.w3.org/2000/svg">
<rect width="1080" height="1080" fill="white"/>
<g clip-path="url(#clip0)">
<path d="M428.22 137.015L723.434 177.347C734.762 178.892 742.657 189.189 741.112 200.517L697.517 519.742C695.972 531.07 685.674 538.964 674.346 537.42L379.133 497.087C367.805 495.543 359.909 485.245 361.454 473.918L405.05 154.692C406.594 143.537 416.892 135.47 428.22 137.015Z" fill="white"/>
<path d="M288.337 1008.88C279.584 1010.59 249.033 1001.15 243.884 996.349C242.167 994.805 240.794 990.342 239.421 988.454C238.22 982.448 235.302 985.537 232.384 985.022C223.631 983.134 199.945 976.955 188.789 982.962C186.729 987.596 186.558 992.059 185.184 994.633C182.267 1006.3 180.379 1018.32 179.177 1030.33C178.319 1037.71 183.64 1044.23 190.848 1045.09C190.848 1045.09 190.848 1045.09 191.02 1045.09H191.192C193.595 1045.26 196.169 1045.09 198.744 1044.75C217.624 1040.11 255.898 1038.91 270.659 1033.08C295.374 1026.56 309.449 1013.51 288.337 1008.88Z" fill="#020023"/>
<path d="M582.006 1022.78C573.424 1025.01 542.186 1017.46 536.866 1013C534.978 1011.62 533.433 1007.33 531.888 1005.45C530.344 999.61 527.597 1002.7 524.68 1002.36C515.755 1000.98 491.726 996.178 480.913 1002.87C479.025 1007.51 479.368 1012.14 478.166 1014.71C476.107 1026.56 474.734 1038.74 474.39 1050.75C474.047 1058.13 479.711 1064.31 487.091 1064.83C487.091 1064.83 487.091 1064.83 487.263 1064.83H487.435C489.838 1065 492.412 1064.66 494.815 1064.14C513.352 1058.31 551.455 1054.87 565.872 1048.01C590.073 1039.94 603.46 1026.04 582.006 1022.78Z" fill="#020023"/>
<path d="M187.759 983.306C202.691 985.365 238.563 985.88 238.563 985.88C238.563 985.88 240.794 968.374 251.779 934.735C262.935 900.582 319.06 793.487 319.06 793.487C330.56 775.981 342.574 739.767 342.574 739.767L359.395 601.093C359.395 601.093 448.13 739.596 446.929 771.004C445.727 802.411 467.697 925.296 467.697 925.296C469.928 943.66 480.913 1004.42 480.913 1004.42C497.39 1002.36 514.038 1002.01 530.687 1003.04C528.456 977.814 519.359 874.323 519.359 874.323C519.359 874.323 513.695 794.001 512.494 745.088C511.292 696.174 476.45 593.027 452.936 545.829C449.847 537.763 447.272 529.696 445.212 521.287L237.705 547.546C242.339 560.761 246.115 574.148 248.861 587.878C261.047 649.149 269.629 752.125 269.629 752.125C237.19 788.853 216.765 858.018 216.765 858.018C203.549 899.552 187.759 983.306 187.759 983.306Z" fill="url(#paint0_linear)"/>
<path d="M418.437 133.411C386.513 127.404 353.731 138.731 353.731 138.731L348.238 140.447L314.254 184.04L345.664 175.631C354.074 172.713 370.551 168.251 378.103 168.766C383.767 168.422 397.154 171.168 403.505 166.02C408.311 163.788 409.169 159.841 418.952 150.23C425.989 142.507 423.93 140.276 426.676 139.246C430.28 137.701 427.191 134.097 418.437 133.411Z" fill="url(#paint1_linear)"/>
<path d="M531.202 520.6C530.858 518.884 524.68 519.914 523.65 518.369C516.956 508.93 509.061 496.916 492.24 491.252C487.435 489.707 482.457 488.678 477.48 488.163L466.152 507.9C467.525 511.332 469.413 514.593 471.473 517.511C478.338 526.779 492.755 539.308 519.187 535.875C525.366 535.189 532.06 526.95 531.202 520.6Z" fill="url(#paint2_linear)"/>
<path d="M295.203 81.7509C291.427 81.7509 211.788 143.193 211.101 150.058C210.93 153.662 210.758 169.28 208.012 179.578C205.437 189.189 197.714 202.919 197.714 202.919C197.714 202.919 204.579 215.791 222.429 218.366C239.593 220.768 262.592 215.105 262.592 215.105C262.592 215.105 257.271 181.123 263.794 177.347C269.458 174.086 271.174 177.519 290.74 161.042C310.307 144.566 303.956 103.033 303.441 100.287C302.926 97.5406 298.979 81.7509 295.203 81.7509Z" fill="url(#paint3_linear)"/>
<path d="M386.17 369.226C360.253 345.713 343.776 272.428 335.537 254.064C327.299 235.7 314.083 230.551 308.934 228.492C306.359 227.462 292.113 223.515 281.472 220.425L358.708 171.855C369.178 152.118 348.582 140.276 348.582 140.276L260.704 183.869V213.56L232.213 208.926L198.229 202.233C187.759 199.83 177.118 198.114 166.476 197.256C162.014 196.912 157.551 197.427 153.26 198.972L151.029 199.83C145.708 201.718 141.246 205.494 138.671 210.643C133.179 222.656 129.403 235.528 127.687 248.572C124.425 269.682 140.731 317.566 157.379 352.406C164.588 367.166 192.736 443.025 199.773 462.076C234.101 541.71 236.503 547.889 236.503 547.889C341.888 546.859 444.526 523.346 444.526 523.346C449.332 514.593 431.996 489.193 431.996 489.193L463.921 515.623C477.823 520.085 489.323 489.021 489.323 489.021C489.323 489.021 407.967 388.963 386.17 369.226Z" fill="url(#paint4_linear)"/>
<path d="M196.169 85.3551C197.886 82.2658 201.661 75.2291 203.893 72.6547C207.669 68.7073 211.788 64.9315 216.079 61.3274C220.026 58.9246 229.81 53.9474 233.586 51.8879C246.973 47.7688 264.823 51.8879 277.868 52.5744C289.711 51.7163 298.464 66.4762 303.098 76.2589C307.732 86.0416 298.807 84.8402 299.665 92.3918C299.837 93.7648 295.889 95.8243 292.457 97.7122C289.024 99.6001 279.241 115.218 275.808 122.598C272.204 104.577 260.189 136.671 262.42 140.619C257.615 143.708 251.779 156.752 243.197 160.871C237.19 158.296 226.034 148.342 211.101 151.088C210.072 148.342 195.311 137.358 193.766 118.822C192.565 113.33 191.363 93.5932 196.169 85.3551Z" fill="url(#paint5_linear)"/>
<path opacity="0.07" d="M241.653 166.363C241.653 166.363 255.04 178.377 263.107 178.033L261.047 188.159L261.562 202.748C261.562 202.748 256.413 194.51 249.891 186.1C245.772 180.265 242.854 173.571 241.653 166.363Z" fill="black"/>
<path opacity="0.07" d="M290.225 313.79C290.225 313.79 307.046 364.42 358.88 417.109C410.714 469.799 423.243 480.783 423.243 480.783C423.243 480.783 433.884 494.17 430.452 503.094C427.019 512.019 404.363 482.156 353.559 458.986C324.553 445.771 314.598 422.945 301.21 391.022C284.39 350.69 280.614 342.109 278.383 327.692C272.719 289.934 290.225 313.79 290.225 313.79Z" fill="black"/>
<path opacity="0.07" d="M278.542 717.628C278.542 717.628 253.998 770.66 246.961 796.576C239.753 823.35 239.753 862.309 218.127 881.188C193.583 902.641 164.748 974.724 158.054 989.999C148.614 1011.8 129.219 1131.93 134.883 1140.34C140.376 1148.58 162.517 1136.22 162.517 1136.22C162.517 1136.22 154.45 1105.68 161.315 1078.04C168.181 1050.41 200.448 976.612 220.701 940.056C239.066 907.275 257.774 869.346 261.894 847.377C266.013 825.409 278.542 717.628 278.542 717.628Z" fill="black"/>
</g>
<g filter="url(#filter0_dddddd)">
<path d="M542.504 280.575C564.038 268.21 564.745 236.588 543.776 223.656C522.807 210.724 495.889 226.18 495.323 251.477C495.135 259.917 498.104 268.075 503.614 274.262C484.469 278.77 469.179 293.746 463.829 313.231C462.708 317.325 466.296 321.088 470.286 320.006C472.137 319.503 473.598 318.023 474.117 316.123C483.097 283.593 522.777 272.926 545.543 296.922C553.778 305.601 558.094 317.462 557.453 329.652C557.301 332.454 559.226 334.899 561.913 335.319L562.489 335.412C565.404 335.537 567.894 333.213 568.067 330.209C569.154 309.972 559.322 290.882 542.504 280.575ZM523.683 273.576C507.544 270.957 500.385 251.283 510.797 238.163C521.209 225.044 541.382 228.318 547.109 244.058C548.415 247.647 548.778 251.537 548.161 255.336C546.22 267.29 535.262 275.456 523.683 273.576Z" fill="black"/>
<path d="M532.312 342.955C550.345 351.486 544.282 361.716 521.4 361.368C498.517 361.021 475.976 350.356 480.826 342.172C482.445 339.441 487.032 337.474 493.64 336.677C476.227 331.158 464.744 323.125 463.762 315.774C463.559 314.23 467.805 313.795 471.403 314.991C473.074 315.546 474.16 316.328 474.254 317.044C475.937 329.328 511.748 341.187 538.713 338.391C548.469 337.38 555.138 334.52 557.122 330.497C557.573 329.572 559.943 329.203 562.61 329.641L563.183 329.734C566.008 330.317 567.903 331.588 567.427 332.583C564.158 339.264 550.652 343.254 532.312 342.955ZM512.756 341.173C496.707 338.568 485.644 343.313 492.84 349.714C500.036 356.116 520.096 359.373 528.948 355.576C530.967 354.709 532.144 353.548 532.362 352.206C533.048 347.981 524.271 343.043 512.756 341.173Z" fill="black"/>
</g>
<defs>
<filter id="filter0_dddddd" x="331" y="139" width="378.788" height="426.788" filterUnits="userSpaceOnUse" color-interpolation-filters="sRGB">
<feFlood flood-opacity="0" result="BackgroundImageFix"/>
<feColorMatrix in="SourceAlpha" type="matrix" values="0 0 0 0 0 0 0 0 0 0 0 0 0 0 0 0 0 0 127 0"/>
<feOffset dy="1.7157"/>
<feGaussianBlur stdDeviation="0.193708"/>
<feColorMatrix type="matrix" values="0 0 0 0 0 0 0 0 0 0 0 0 0 0 0 0 0 0 0.0196802 0"/>
<feBlend mode="normal" in2="BackgroundImageFix" result="effect1_dropShadow"/>
<feColorMatrix in="SourceAlpha" type="matrix" values="0 0 0 0 0 0 0 0 0 0 0 0 0 0 0 0 0 0 127 0"/>
<feOffset dy="4.12306"/>
<feGaussianBlur stdDeviation="0.465507"/>
<feColorMatrix type="matrix" values="0 0 0 0 0 0 0 0 0 0 0 0 0 0 0 0 0 0 0.0282725 0"/>
<feBlend mode="normal" in2="effect1_dropShadow" result="effect2_dropShadow"/>
<feColorMatrix in="SourceAlpha" type="matrix" values="0 0 0 0 0 0 0 0 0 0 0 0 0 0 0 0 0 0 127 0"/>
<feOffset dy="7.76336"/>
<feGaussianBlur stdDeviation="0.876509"/>
<feColorMatrix type="matrix" values="0 0 0 0 0 0 0 0 0 0 0 0 0 0 0 0 0 0 0.035 0"/>
<feBlend mode="normal" in2="effect2_dropShadow" result="effect3_dropShadow"/>
<feColorMatrix in="SourceAlpha" type="matrix" values="0 0 0 0 0 0 0 0 0 0 0 0 0 0 0 0 0 0 127 0"/>
<feOffset dy="13.8485"/>
<feGaussianBlur stdDeviation="1.56354"/>
<feColorMatrix type="matrix" values="0 0 0 0 0 0 0 0 0 0 0 0 0 0 0 0 0 0 0.0417275 0"/>
<feBlend mode="normal" in2="effect3_dropShadow" result="effect4_dropShadow"/>
<feColorMatrix in="SourceAlpha" type="matrix" values="0 0 0 0 0 0 0 0 0 0 0 0 0 0 0 0 0 0 127 0"/>
<feOffset dy="25.9021"/>
<feGaussianBlur stdDeviation="2.92443"/>
<feColorMatrix type="matrix" values="0 0 0 0 0 0 0 0 0 0 0 0 0 0 0 0 0 0 0.0503198 0"/>
<feBlend mode="normal" in2="effect4_dropShadow" result="effect5_dropShadow"/>
<feColorMatrix in="SourceAlpha" type="matrix" values="0 0 0 0 0 0 0 0 0 0 0 0 0 0 0 0 0 0 127 0"/>
<feOffset dy="62"/>
<feGaussianBlur stdDeviation="7"/>
<feColorMatrix type="matrix" values="0 0 0 0 0 0 0 0 0 0 0 0 0 0 0 0 0 0 0.07 0"/>
<feBlend mode="normal" in2="effect5_dropShadow" result="effect6_dropShadow"/>
<feBlend mode="normal" in="SourceGraphic" in2="effect6_dropShadow" result="shape"/>
</filter>
<linearGradient id="paint0_linear" x1="187.759" y1="762.851" x2="530.687" y2="762.851" gradientUnits="userSpaceOnUse">
<stop stop-color="#2D2D36"/>
<stop offset="1" stop-color="#EA5858"/>
</linearGradient>
<linearGradient id="paint1_linear" x1="314.254" y1="157.847" x2="428.312" y2="157.847" gradientUnits="userSpaceOnUse">
<stop stop-color="#F87B58"/>
<stop offset="0.41" stop-color="#F89453"/>
<stop offset="0.94" stop-color="#F8C548"/>
</linearGradient>
<linearGradient id="paint2_linear" x1="466.152" y1="512.309" x2="531.368" y2="512.309" gradientUnits="userSpaceOnUse">
<stop stop-color="#F87B58"/>
<stop offset="0.41" stop-color="#F89453"/>
<stop offset="0.94" stop-color="#F8C548"/>
</linearGradient>
<linearGradient id="paint3_linear" x1="197.714" y1="150.355" x2="304.98" y2="150.355" gradientUnits="userSpaceOnUse">
<stop stop-color="#F87B58"/>
<stop offset="0.41" stop-color="#F89453"/>
<stop offset="0.94" stop-color="#F8C548"/>
</linearGradient>
<linearGradient id="paint4_linear" x1="127.267" y1="344.082" x2="489.323" y2="344.082" gradientUnits="userSpaceOnUse">
<stop stop-color="#E5A4ED"/>
<stop offset="1" stop-color="#7A5BF5"/>
</linearGradient>
<linearGradient id="paint5_linear" x1="185.048" y1="129.784" x2="287.221" y2="84.9508" gradientUnits="userSpaceOnUse">
<stop stop-color="#020023"/>
<stop offset="1" stop-color="#121A1D"/>
</linearGradient>
<clipPath id="clip0">
<rect width="616" height="1015" fill="white" transform="translate(127 50)"/>
</clipPath>
</defs>
</svg>
