<svg width="1080" height="1080" viewBox="0 0 1080 1080" fill="none" xmlns="http://www.w3.org/2000/svg">
<rect width="1080" height="1080" fill="white"/>
<g clip-path="url(#clip0)">
<path d="M559.273 205.328L286.105 242.561C275.623 243.987 268.318 253.493 269.747 263.95L310.087 558.644C311.516 569.101 321.045 576.389 331.527 574.963L604.696 537.73C615.178 536.304 622.483 526.798 621.054 516.341L580.714 221.647C579.285 211.348 569.755 203.902 559.273 205.328Z" fill="#EBEBEB"/>
<path d="M688.71 1010.19C696.81 1011.78 725.08 1003.06 729.844 998.625C731.433 997.199 732.703 993.08 733.974 991.337C735.085 985.791 737.785 988.643 740.485 988.168C748.585 986.425 770.502 980.721 780.825 986.267C782.731 990.545 782.89 994.664 784.16 997.041C786.86 1007.81 788.607 1018.9 789.719 1030C790.513 1036.81 785.59 1042.83 778.919 1043.62C778.919 1043.62 778.919 1043.62 778.761 1043.62H778.602C776.378 1043.78 773.996 1043.62 771.614 1043.3C754.144 1039.03 718.727 1037.92 705.069 1032.53C682.199 1026.51 669.176 1014.47 688.71 1010.19Z" fill="#020023"/>
<path d="M416.972 1023.02C424.913 1025.08 453.818 1018.11 458.741 1013.99C460.488 1012.73 461.917 1008.76 463.347 1007.02C464.776 1001.64 467.317 1004.49 470.017 1004.17C478.276 1002.9 500.51 998.467 510.516 1004.65C512.263 1008.92 511.945 1013.2 513.057 1015.58C514.963 1026.51 516.233 1037.76 516.551 1048.85C516.869 1055.66 511.628 1061.37 504.798 1061.84C504.798 1061.84 504.798 1061.84 504.64 1061.84H504.481C502.257 1062 499.875 1061.68 497.652 1061.21C480.499 1055.82 445.241 1052.65 431.901 1046.31C409.507 1038.87 397.119 1026.03 416.972 1023.02Z" fill="#020023"/>
<path d="M781.778 986.584C767.961 988.485 734.768 988.96 734.768 988.96C734.768 988.96 732.703 972.8 722.539 941.746C712.216 910.217 660.282 811.352 660.282 811.352C649.641 795.191 638.524 761.761 638.524 761.761L622.96 633.743C622.96 633.743 540.85 761.602 541.962 790.596C543.074 819.59 522.745 933.032 522.745 933.032C520.68 949.985 510.516 1006.07 510.516 1006.07C495.27 1004.17 479.864 1003.85 464.459 1004.8C466.523 981.514 474.941 885.976 474.941 885.976C474.941 885.976 480.182 811.827 481.293 766.672C482.405 721.518 514.645 626.297 536.404 582.726C539.262 575.28 541.645 567.833 543.55 560.07L735.562 584.311C731.274 596.51 727.78 608.868 725.239 621.543C713.963 678.106 706.022 773.168 706.022 773.168C736.039 807.074 754.938 870.924 754.938 870.924C767.167 909.266 781.778 986.584 781.778 986.584Z" fill="url(#paint0_linear)"/>
<path d="M568.326 202.001C597.866 196.455 628.201 206.912 628.201 206.912L633.283 208.497L664.729 248.74L635.665 240.976C627.883 238.283 612.636 234.164 605.648 234.639C600.407 234.322 588.019 236.857 582.143 232.104C577.696 230.044 576.902 226.4 567.85 217.528C561.338 210.398 563.244 208.338 560.703 207.388C557.367 205.962 560.226 202.634 568.326 202.001Z" fill="url(#paint1_linear)"/>
<path d="M463.982 559.436C464.3 557.852 470.017 558.802 470.97 557.376C477.164 548.662 484.47 537.572 500.034 532.343C504.481 530.917 509.087 529.967 513.692 529.491L524.174 547.712C522.904 550.88 521.157 553.891 519.251 556.584C512.898 565.14 499.558 576.706 475.1 573.537C469.382 572.903 463.188 565.298 463.982 559.436Z" fill="url(#paint2_linear)"/>
<path d="M682.358 154.311C685.852 154.311 759.544 211.032 760.179 217.369C760.338 220.696 760.497 235.114 763.038 244.62C765.42 253.493 772.567 266.168 772.567 266.168C772.567 266.168 766.214 278.051 749.697 280.427C733.815 282.645 712.533 277.417 712.533 277.417C712.533 277.417 717.457 246.046 711.422 242.561C706.181 239.55 704.592 242.719 686.487 227.509C668.382 212.299 674.258 173.957 674.734 171.422C675.211 168.887 678.864 154.311 682.358 154.311Z" fill="url(#paint3_linear)"/>
<path d="M598.184 419.694C622.165 397.988 637.412 330.335 645.035 313.382C652.659 296.429 664.888 291.676 669.652 289.775C672.035 288.824 685.216 285.18 695.063 282.329L623.595 237.491C613.907 219.27 632.965 208.338 632.965 208.338L714.28 248.581V275.991L740.644 271.713L772.09 265.534C781.778 263.316 791.625 261.732 801.472 260.939C805.601 260.623 809.73 261.098 813.701 262.524L815.765 263.316C820.689 265.059 824.818 268.544 827.2 273.298C832.283 284.388 835.777 296.271 837.365 308.312C840.382 327.8 825.294 372.004 809.889 404.167C803.219 417.793 777.172 487.822 770.661 505.409C738.897 578.924 736.674 584.627 736.674 584.627C639.159 583.677 544.186 561.971 544.186 561.971C539.739 553.891 555.779 530.442 555.779 530.442L526.239 554.841C513.375 558.961 502.734 530.283 502.734 530.283C502.734 530.283 578.014 437.914 598.184 419.694Z" fill="url(#paint4_linear)"/>
<path d="M773.996 157.638C772.408 154.786 768.914 148.29 766.849 145.914C763.355 142.27 759.544 138.784 755.573 135.457C751.92 133.239 742.868 128.644 739.374 126.743C726.986 122.94 710.469 126.743 698.398 127.377C687.44 126.584 679.34 140.21 675.052 149.241C670.764 158.272 679.023 157.163 678.228 164.134C678.07 165.402 681.722 167.303 684.899 169.046C688.075 170.788 697.128 185.206 700.304 192.019C703.639 175.383 714.757 205.011 712.692 208.655C717.139 211.507 722.539 223.548 730.48 227.351C736.038 224.974 746.362 215.785 760.179 218.32C761.132 215.785 774.79 205.645 776.22 188.533C777.331 183.463 778.443 165.243 773.996 157.638Z" fill="url(#paint5_linear)"/>
<path opacity="0.07" d="M731.909 232.421C731.909 232.421 719.521 243.511 712.057 243.194L713.963 252.542L713.486 266.009C713.486 266.009 718.251 258.404 724.286 250.641C728.097 245.254 730.797 239.075 731.909 232.421Z" fill="black"/>
<path opacity="0.07" d="M686.964 368.519C686.964 368.519 671.399 415.258 623.436 463.898C575.473 512.538 563.879 522.678 563.879 522.678C563.879 522.678 554.032 535.037 557.209 543.275C560.385 551.514 581.349 523.946 628.359 502.557C655.2 490.357 664.411 469.285 676.799 439.816C692.363 402.583 695.857 394.661 697.922 381.352C703.163 346.496 686.964 368.519 686.964 368.519Z" fill="black"/>
<g filter="url(#filter0_dddddd)">
<path d="M428.53 365.033C401.849 349.26 401.466 309.783 427.841 293.974C454.216 278.165 487.567 297.88 487.873 329.462C487.975 339.999 484.141 350.134 477.166 357.767C500.989 363.696 519.835 382.629 526.206 407.032C527.539 412.159 523.003 416.799 518.04 415.385C515.737 414.728 513.938 412.859 513.319 410.479C502.626 369.738 453.27 355.798 424.478 385.387C414.063 396.089 408.49 410.824 409.097 426.047C409.243 429.547 406.801 432.569 403.442 433.05L402.721 433.157C399.081 433.267 396.01 430.328 395.841 426.575C394.804 401.301 407.377 377.63 428.53 365.033ZM452.13 356.595C472.314 353.58 481.559 329.139 468.771 312.601C455.984 296.062 430.755 299.831 423.358 319.384C421.672 323.843 421.158 328.692 421.868 333.443C424.101 348.393 437.649 358.758 452.13 356.595Z" fill="black"/>
<path d="M440.265 443.047C417.624 453.41 425.029 466.274 453.593 466.201C482.157 466.129 510.458 453.174 504.535 442.884C502.557 439.45 496.863 436.922 488.629 435.823C510.449 429.211 524.907 419.365 526.248 410.206C526.526 408.283 521.233 407.673 516.724 409.109C514.631 409.775 513.262 410.735 513.134 411.627C510.839 426.931 465.957 441.167 432.347 437.251C420.188 435.835 411.909 432.16 409.497 427.107C408.948 425.946 405.997 425.448 402.66 425.953L401.944 426.06C398.409 426.743 396.024 428.299 396.602 429.548C400.578 437.939 417.371 443.132 440.265 443.047ZM464.7 441.133C484.771 438.135 498.504 444.231 489.422 452.107C480.339 459.983 455.251 463.731 444.264 458.853C441.758 457.739 440.307 456.271 440.056 454.593C439.267 449.309 450.299 443.284 464.7 441.133Z" fill="black"/>
</g>
<g filter="url(#filter1_dddddd)">
<path d="M428.53 365.033C401.849 349.26 401.466 309.783 427.841 293.974C454.216 278.165 487.567 297.88 487.873 329.462C487.975 339.999 484.141 350.134 477.166 357.767C500.989 363.696 519.835 382.629 526.206 407.032C527.539 412.159 523.003 416.799 518.04 415.385C515.737 414.728 513.938 412.859 513.319 410.479C502.626 369.738 453.27 355.798 424.478 385.387C414.063 396.089 408.49 410.824 409.097 426.047C409.243 429.547 406.801 432.569 403.442 433.05L402.721 433.157C399.081 433.267 396.01 430.328 395.841 426.575C394.804 401.301 407.377 377.63 428.53 365.033ZM452.13 356.595C472.314 353.58 481.559 329.139 468.771 312.601C455.984 296.062 430.755 299.831 423.358 319.384C421.672 323.843 421.158 328.692 421.868 333.443C424.101 348.393 437.649 358.758 452.13 356.595Z" fill="black"/>
<path d="M440.265 443.047C417.624 453.41 425.029 466.274 453.593 466.201C482.157 466.129 510.458 453.174 504.535 442.884C502.557 439.45 496.863 436.922 488.629 435.823C510.449 429.211 524.907 419.365 526.248 410.206C526.526 408.283 521.233 407.673 516.724 409.109C514.631 409.775 513.262 410.735 513.134 411.627C510.839 426.931 465.957 441.167 432.347 437.251C420.188 435.835 411.909 432.16 409.497 427.107C408.948 425.946 405.997 425.448 402.66 425.953L401.944 426.06C398.409 426.743 396.024 428.299 396.602 429.548C400.578 437.939 417.371 443.132 440.265 443.047ZM464.7 441.133C484.771 438.135 498.504 444.231 489.422 452.107C480.339 459.983 455.251 463.731 444.264 458.853C441.758 457.739 440.307 456.271 440.056 454.593C439.267 449.309 450.299 443.284 464.7 441.133Z" fill="black"/>
</g>
</g>
<g filter="url(#filter2_dd)">
<path d="M322.558 837.791C323.474 837.309 323.143 835.923 322.108 835.907L134.935 832.935C134.514 832.929 134.134 833.186 133.985 833.58L85.753 960.353C85.4255 961.214 86.3378 962.023 87.1532 961.594L322.558 837.791Z" fill="#C4C4C4"/>
<path d="M89.4275 966.645C88.6013 966.61 88.0927 967.537 88.5651 968.215L89.722 969.877C89.9044 970.139 90.2008 970.298 90.5199 970.306L282.574 974.699L89.4275 966.645ZM86.8263 962.908C86.0002 962.874 85.4917 963.8 85.9641 964.479L87.1233 966.144C87.3057 966.406 87.6022 966.565 87.9213 966.572L280.027 970.931L86.8263 962.908Z" fill="#B0B0B0"/>
<path d="M88.2314 961.027C87.3179 961.507 87.6425 962.888 88.6744 962.912L276.765 967.144C277.192 967.153 277.578 966.891 277.726 966.491L325.118 838.415C325.436 837.555 324.526 836.756 323.715 837.183L88.2314 961.027Z" fill="#C4C4C4"/>
<path d="M329.623 841.41C329.171 840.727 328.135 840.847 327.851 841.615L280.027 970.931L330.85 844.045C330.972 843.741 330.937 843.396 330.756 843.122L329.623 841.41ZM327.111 837.613C326.659 836.93 325.623 837.05 325.339 837.818L277.478 967.16L328.34 840.252C328.462 839.947 328.427 839.602 328.246 839.328L327.111 837.613ZM280.316 971.359C280.135 971.09 279.835 970.926 279.511 970.919L87.4135 966.561L280.594 974.616C281.414 974.65 281.924 973.737 281.464 973.057L280.316 971.359ZM277.768 967.588C277.586 967.319 277.286 967.155 276.962 967.148L84.8127 962.825L278.048 970.848C278.868 970.883 279.377 969.969 278.918 969.289L277.768 967.588ZM280.224 970.438C280.101 970.746 280.138 971.095 280.324 971.37L281.483 973.085C281.939 973.759 282.967 973.635 283.25 972.871L331.045 843.559L280.224 970.438ZM277.676 966.667C277.552 966.975 277.59 967.324 277.775 967.599L278.936 969.317C279.392 969.992 280.42 969.867 280.703 969.104L328.535 839.765L277.676 966.667Z" fill="#B0B0B0"/>
</g>
<g filter="url(#filter3_dd)">
<path d="M438.337 922.858C439.368 922.951 439.843 921.607 438.982 921.031L283.397 816.936C283.047 816.702 282.588 816.712 282.249 816.962L172.928 897.253C172.185 897.798 172.512 898.972 173.43 899.055L438.337 922.858Z" fill="#C4C4C4"/>
<path d="M172.598 904.531C171.923 904.054 170.993 904.556 171.022 905.382L171.091 907.406C171.102 907.725 171.265 908.02 171.529 908.199L330.442 1016.14L172.598 904.531ZM172.442 899.981C171.767 899.504 170.837 900.006 170.865 900.832L170.935 902.86C170.946 903.179 171.109 903.474 171.373 903.653L330.348 1011.59L172.442 899.981Z" fill="#B0B0B0"/>
<path d="M175.023 897.164C173.995 897.071 173.518 898.408 174.372 898.987L330.044 1004.64C330.397 1004.88 330.864 1004.87 331.205 1004.61L440.529 922.772C441.263 922.222 440.932 921.057 440.019 920.975L175.023 897.164Z" fill="#C4C4C4"/>
<path d="M442.307 929.732C442.298 928.913 441.363 928.452 440.707 928.942L330.348 1011.59L441.907 932.612C442.175 932.422 442.332 932.113 442.329 931.785L442.307 929.732ZM442.258 925.18C442.249 924.361 441.314 923.899 440.659 924.39L330.255 1007.04L441.858 928.063C442.126 927.874 442.284 927.565 442.28 927.236L442.258 925.18ZM330.359 1012.11C330.352 1011.78 330.189 1011.48 329.921 1011.3L170.953 903.368L328.824 1014.99C329.494 1015.47 330.418 1014.98 330.401 1014.16L330.359 1012.11ZM330.265 1007.56C330.259 1007.23 330.095 1006.93 329.827 1006.75L170.796 898.818L328.731 1010.45C329.401 1010.92 330.324 1010.43 330.308 1009.61L330.265 1007.56ZM330.781 1011.28C330.511 1011.48 330.353 1011.79 330.359 1012.12L330.402 1014.19C330.419 1015 331.35 1015.46 332.001 1014.97L442.334 932.309L330.781 1011.28ZM330.688 1006.73C330.417 1006.92 330.259 1007.24 330.266 1007.57L330.308 1009.64C330.325 1010.46 331.256 1010.91 331.907 1010.42L442.286 927.761L330.688 1006.73Z" fill="#B0B0B0"/>
</g>
<path d="M206.616 900.503C202.683 901.098 199.444 897.203 200.785 893.492C202.126 889.781 207.041 889.037 209.633 892.153C210.497 893.193 210.938 894.511 210.863 895.836C213.713 894.494 217.123 894.848 219.736 896.759C220.284 897.16 220.209 897.99 219.601 898.252C219.319 898.373 218.988 898.333 218.734 898.147C214.366 894.962 208.327 897.578 207.863 902.856C207.696 904.765 208.336 906.682 209.631 908.147C209.93 908.483 209.932 908.982 209.637 909.302L209.574 909.371C209.221 909.677 208.677 909.634 208.356 909.274C206.203 906.845 205.534 903.471 206.616 900.503ZM208.279 897.75C210.041 895.813 208.979 892.633 206.366 892.025C203.753 891.418 201.549 893.838 202.4 896.383C202.593 896.963 202.936 897.487 203.391 897.902C204.826 899.207 207.014 899.14 208.279 897.75Z" fill="#721313"/>
<path d="M214.11 907.31C212.698 910.177 214.478 910.855 217.313 908.532C220.148 906.208 221.912 902.625 220.488 902.082C220.013 901.9 219.242 902.111 218.333 902.669C219.967 900.242 220.607 898.091 219.997 897.071C219.869 896.857 219.293 897.226 218.961 897.734C218.807 897.97 218.749 898.177 218.808 898.276C219.821 899.984 216.512 905.039 212.852 907.376C211.528 908.221 210.407 908.527 209.757 908.22C209.608 908.149 209.274 908.339 208.984 908.659L208.921 908.728C208.625 909.083 208.514 909.431 208.673 909.508C209.748 910.02 211.84 909.175 214.11 907.31ZM216.384 905.138C218.137 903.212 219.997 902.705 219.733 904.224C219.468 905.744 217.277 908.152 215.789 908.557C215.45 908.65 215.186 908.622 215.025 908.475C214.518 908.014 215.127 906.52 216.384 905.138Z" fill="#721313"/>
<defs>
<filter id="filter0_dddddd" x="224.684" y="190.684" width="461.813" height="509.813" filterUnits="userSpaceOnUse" color-interpolation-filters="sRGB">
<feFlood flood-opacity="0" result="BackgroundImageFix"/>
<feColorMatrix in="SourceAlpha" type="matrix" values="0 0 0 0 0 0 0 0 0 0 0 0 0 0 0 0 0 0 127 0"/>
<feOffset dy="1.7157"/>
<feGaussianBlur stdDeviation="0.193708"/>
<feColorMatrix type="matrix" values="0 0 0 0 0 0 0 0 0 0 0 0 0 0 0 0 0 0 0.0196802 0"/>
<feBlend mode="normal" in2="BackgroundImageFix" result="effect1_dropShadow"/>
<feColorMatrix in="SourceAlpha" type="matrix" values="0 0 0 0 0 0 0 0 0 0 0 0 0 0 0 0 0 0 127 0"/>
<feOffset dy="4.12306"/>
<feGaussianBlur stdDeviation="0.465507"/>
<feColorMatrix type="matrix" values="0 0 0 0 0 0 0 0 0 0 0 0 0 0 0 0 0 0 0.0282725 0"/>
<feBlend mode="normal" in2="effect1_dropShadow" result="effect2_dropShadow"/>
<feColorMatrix in="SourceAlpha" type="matrix" values="0 0 0 0 0 0 0 0 0 0 0 0 0 0 0 0 0 0 127 0"/>
<feOffset dy="7.76336"/>
<feGaussianBlur stdDeviation="0.876509"/>
<feColorMatrix type="matrix" values="0 0 0 0 0 0 0 0 0 0 0 0 0 0 0 0 0 0 0.035 0"/>
<feBlend mode="normal" in2="effect2_dropShadow" result="effect3_dropShadow"/>
<feColorMatrix in="SourceAlpha" type="matrix" values="0 0 0 0 0 0 0 0 0 0 0 0 0 0 0 0 0 0 127 0"/>
<feOffset dy="13.8485"/>
<feGaussianBlur stdDeviation="1.56354"/>
<feColorMatrix type="matrix" values="0 0 0 0 0 0 0 0 0 0 0 0 0 0 0 0 0 0 0.0417275 0"/>
<feBlend mode="normal" in2="effect3_dropShadow" result="effect4_dropShadow"/>
<feColorMatrix in="SourceAlpha" type="matrix" values="0 0 0 0 0 0 0 0 0 0 0 0 0 0 0 0 0 0 127 0"/>
<feOffset dy="25.9021"/>
<feGaussianBlur stdDeviation="2.92443"/>
<feColorMatrix type="matrix" values="0 0 0 0 0 0 0 0 0 0 0 0 0 0 0 0 0 0 0.0503198 0"/>
<feBlend mode="normal" in2="effect4_dropShadow" result="effect5_dropShadow"/>
<feColorMatrix in="SourceAlpha" type="matrix" values="0 0 0 0 0 0 0 0 0 0 0 0 0 0 0 0 0 0 127 0"/>
<feOffset dy="62"/>
<feGaussianBlur stdDeviation="7"/>
<feColorMatrix type="matrix" values="0 0 0 0 0 0 0 0 0 0 0 0 0 0 0 0 0 0 0.07 0"/>
<feBlend mode="normal" in2="effect5_dropShadow" result="effect6_dropShadow"/>
<feBlend mode="normal" in="SourceGraphic" in2="effect6_dropShadow" result="shape"/>
</filter>
<filter id="filter1_dddddd" x="224.684" y="190.684" width="461.813" height="509.813" filterUnits="userSpaceOnUse" color-interpolation-filters="sRGB">
<feFlood flood-opacity="0" result="BackgroundImageFix"/>
<feColorMatrix in="SourceAlpha" type="matrix" values="0 0 0 0 0 0 0 0 0 0 0 0 0 0 0 0 0 0 127 0"/>
<feOffset dy="1.7157"/>
<feGaussianBlur stdDeviation="0.193708"/>
<feColorMatrix type="matrix" values="0 0 0 0 0 0 0 0 0 0 0 0 0 0 0 0 0 0 0.0196802 0"/>
<feBlend mode="normal" in2="BackgroundImageFix" result="effect1_dropShadow"/>
<feColorMatrix in="SourceAlpha" type="matrix" values="0 0 0 0 0 0 0 0 0 0 0 0 0 0 0 0 0 0 127 0"/>
<feOffset dy="4.12306"/>
<feGaussianBlur stdDeviation="0.465507"/>
<feColorMatrix type="matrix" values="0 0 0 0 0 0 0 0 0 0 0 0 0 0 0 0 0 0 0.0282725 0"/>
<feBlend mode="normal" in2="effect1_dropShadow" result="effect2_dropShadow"/>
<feColorMatrix in="SourceAlpha" type="matrix" values="0 0 0 0 0 0 0 0 0 0 0 0 0 0 0 0 0 0 127 0"/>
<feOffset dy="7.76336"/>
<feGaussianBlur stdDeviation="0.876509"/>
<feColorMatrix type="matrix" values="0 0 0 0 0 0 0 0 0 0 0 0 0 0 0 0 0 0 0.035 0"/>
<feBlend mode="normal" in2="effect2_dropShadow" result="effect3_dropShadow"/>
<feColorMatrix in="SourceAlpha" type="matrix" values="0 0 0 0 0 0 0 0 0 0 0 0 0 0 0 0 0 0 127 0"/>
<feOffset dy="13.8485"/>
<feGaussianBlur stdDeviation="1.56354"/>
<feColorMatrix type="matrix" values="0 0 0 0 0 0 0 0 0 0 0 0 0 0 0 0 0 0 0.0417275 0"/>
<feBlend mode="normal" in2="effect3_dropShadow" result="effect4_dropShadow"/>
<feColorMatrix in="SourceAlpha" type="matrix" values="0 0 0 0 0 0 0 0 0 0 0 0 0 0 0 0 0 0 127 0"/>
<feOffset dy="25.9021"/>
<feGaussianBlur stdDeviation="2.92443"/>
<feColorMatrix type="matrix" values="0 0 0 0 0 0 0 0 0 0 0 0 0 0 0 0 0 0 0.0503198 0"/>
<feBlend mode="normal" in2="effect4_dropShadow" result="effect5_dropShadow"/>
<feColorMatrix in="SourceAlpha" type="matrix" values="0 0 0 0 0 0 0 0 0 0 0 0 0 0 0 0 0 0 127 0"/>
<feOffset dy="62"/>
<feGaussianBlur stdDeviation="7"/>
<feColorMatrix type="matrix" values="0 0 0 0 0 0 0 0 0 0 0 0 0 0 0 0 0 0 0.07 0"/>
<feBlend mode="normal" in2="effect5_dropShadow" result="effect6_dropShadow"/>
<feBlend mode="normal" in="SourceGraphic" in2="effect6_dropShadow" result="shape"/>
</filter>
<filter id="filter2_dd" x="37.6015" y="746.508" width="342.632" height="324.326" filterUnits="userSpaceOnUse" color-interpolation-filters="sRGB">
<feFlood flood-opacity="0" result="BackgroundImageFix"/>
<feColorMatrix in="SourceAlpha" type="matrix" values="0 0 0 0 0 0 0 0 0 0 0 0 0 0 0 0 0 0 127 0"/>
<feOffset dy="4"/>
<feGaussianBlur stdDeviation="2"/>
<feColorMatrix type="matrix" values="0 0 0 0 0 0 0 0 0 0 0 0 0 0 0 0 0 0 0.25 0"/>
<feBlend mode="normal" in2="BackgroundImageFix" result="effect1_dropShadow"/>
<feColorMatrix in="SourceAlpha" type="matrix" values="0 0 0 0 0 0 0 0 0 0 0 0 0 0 0 0 0 0 127 0"/>
<feOffset dy="4"/>
<feGaussianBlur stdDeviation="2"/>
<feColorMatrix type="matrix" values="0 0 0 0 0 0 0 0 0 0 0 0 0 0 0 0 0 0 0.25 0"/>
<feBlend mode="normal" in2="effect1_dropShadow" result="effect2_dropShadow"/>
<feBlend mode="normal" in="SourceGraphic" in2="effect2_dropShadow" result="shape"/>
</filter>
<filter id="filter3_dd" x="166.743" y="813.293" width="281.486" height="214.379" filterUnits="userSpaceOnUse" color-interpolation-filters="sRGB">
<feFlood flood-opacity="0" result="BackgroundImageFix"/>
<feColorMatrix in="SourceAlpha" type="matrix" values="0 0 0 0 0 0 0 0 0 0 0 0 0 0 0 0 0 0 127 0"/>
<feOffset dy="4"/>
<feGaussianBlur stdDeviation="2"/>
<feColorMatrix type="matrix" values="0 0 0 0 0 0 0 0 0 0 0 0 0 0 0 0 0 0 0.25 0"/>
<feBlend mode="normal" in2="BackgroundImageFix" result="effect1_dropShadow"/>
<feColorMatrix in="SourceAlpha" type="matrix" values="0 0 0 0 0 0 0 0 0 0 0 0 0 0 0 0 0 0 127 0"/>
<feOffset dy="4"/>
<feGaussianBlur stdDeviation="2"/>
<feColorMatrix type="matrix" values="0 0 0 0 0 0 0 0 0 0 0 0 0 0 0 0 0 0 0.25 0"/>
<feBlend mode="normal" in2="effect1_dropShadow" result="effect2_dropShadow"/>
<feBlend mode="normal" in="SourceGraphic" in2="effect2_dropShadow" result="shape"/>
</filter>
<linearGradient id="paint0_linear" x1="781.778" y1="783.071" x2="464.459" y2="783.071" gradientUnits="userSpaceOnUse">
<stop stop-color="#2D2D36"/>
<stop offset="1" stop-color="#EA5858"/>
</linearGradient>
<linearGradient id="paint1_linear" x1="664.729" y1="224.56" x2="559.188" y2="224.56" gradientUnits="userSpaceOnUse">
<stop stop-color="#F87B58"/>
<stop offset="0.41" stop-color="#F89453"/>
<stop offset="0.94" stop-color="#F8C548"/>
</linearGradient>
<linearGradient id="paint2_linear" x1="524.174" y1="551.782" x2="463.828" y2="551.782" gradientUnits="userSpaceOnUse">
<stop stop-color="#F87B58"/>
<stop offset="0.41" stop-color="#F89453"/>
<stop offset="0.94" stop-color="#F8C548"/>
</linearGradient>
<linearGradient id="paint3_linear" x1="772.567" y1="217.643" x2="673.311" y2="217.643" gradientUnits="userSpaceOnUse">
<stop stop-color="#F87B58"/>
<stop offset="0.41" stop-color="#F89453"/>
<stop offset="0.94" stop-color="#F8C548"/>
</linearGradient>
<linearGradient id="paint4_linear" x1="837.753" y1="396.483" x2="502.734" y2="396.483" gradientUnits="userSpaceOnUse">
<stop stop-color="#E5A4ED"/>
<stop offset="1" stop-color="#7A5BF5"/>
</linearGradient>
<linearGradient id="paint5_linear" x1="784.287" y1="198.653" x2="689.815" y2="157.102" gradientUnits="userSpaceOnUse">
<stop stop-color="#020023"/>
<stop offset="1" stop-color="#121A1D"/>
</linearGradient>
<clipPath id="clip0">
<rect width="570" height="937" fill="white" transform="matrix(-1 0 0 1 838 125)"/>
</clipPath>
</defs>
</svg>
